<svg width="342" height="90" viewBox="0 0 342 90" fill="none" xmlns="http://www.w3.org/2000/svg">
<g clip-path="url(#clip0_1848_4861)">
<path d="M25.5098 1.72863C25.7237 1.56723 25.8491 1.52216 26.1222 1.51104C27.2264 1.46608 28.3697 1.49191 29.4751 1.49815L35.2875 1.51919C37.2961 1.52535 39.3122 1.49519 41.3184 1.51935C42.2488 1.53056 43.5418 1.52979 44.4433 1.65371C47.3806 2.05982 50.0322 3.62725 51.8041 6.00486C53.038 7.64335 53.7852 9.38323 54.6944 11.1839L57.9544 17.6465L69.509 40.5132L72.9724 47.4024C73.4721 48.3885 73.9355 49.4201 74.4973 50.3677C74.5478 50.6541 75.6346 52.7165 75.8407 53.1265L78.8407 59.1228C79.885 61.1736 80.8733 63.2591 81.9103 65.3182C83.7091 68.8185 85.4678 72.3391 87.1854 75.8795C86.9644 75.957 86.4118 75.9878 86.1583 75.9884C82.5484 75.9933 78.93 75.9742 75.3207 75.9748L70.6992 75.9853C68.4782 75.9773 67.4967 75.9791 65.3631 75.1231C63.4105 74.3348 61.7293 72.9957 60.525 71.269C60.0767 70.6388 59.625 69.8628 59.2694 69.1693C56.5815 63.9256 53.9815 58.6362 51.3347 53.3718L42.559 35.9013L39.9949 30.7929C39.4902 29.8015 38.7872 28.5213 38.3592 27.5226C38.2988 27.2286 37.3906 25.496 37.2179 25.1571L35.3453 21.4216L32.1847 15.0256C31.7215 14.1031 31.1592 12.9045 30.6391 12.0335L27.16 4.89962C26.7545 4.07234 26.0207 2.3651 25.5098 1.72863Z" fill="#FEFEFE"/>
<path d="M25.5062 1.73376C26.0172 2.37023 26.751 4.07748 27.1565 4.90475L30.6355 12.0387C31.1557 12.9097 31.7179 14.1082 32.1812 15.0307L35.3418 21.4268L37.2144 25.1623C37.3871 25.5012 38.2953 27.2338 38.3557 27.5277C38.0773 27.7479 36.9982 30.5763 36.8045 31.0632C35.8734 33.4043 34.7593 35.7107 33.8242 38.0405C33.4963 38.6487 33.2439 39.3193 32.9727 39.9564C30.8421 44.9612 28.4224 49.9096 26.4124 54.9631C27.7154 55.0335 29.0669 54.9844 30.3714 55.0103C33.4338 55.0711 36.6025 54.9479 39.6537 54.997C41.0257 54.9863 43.4448 54.8178 44.5989 55.3159C44.962 55.9975 45.1589 56.513 44.8852 57.3159C44.6387 58.0389 43.7224 59.7354 43.2861 60.3245C41.7581 63.1147 40.1866 65.9018 38.5973 68.6575C37.2764 70.948 35.0465 76.0852 31.8568 75.9898C31.6303 76.012 31.363 76.0083 31.1338 76.012C28.9922 76.0471 26.8451 75.9578 24.7052 75.9646C22.0843 75.9861 19.4633 75.9929 16.8424 75.9855C15.552 75.9837 13.931 76.0545 12.6704 75.9C7.34764 75.2489 2.97518 71.7794 1.25517 66.6735C0.326978 63.927 0.190743 60.9744 0.86205 58.1538C1.22832 56.623 1.78856 55.5535 2.39295 54.1368C4.47065 49.2665 6.65459 44.4147 8.7925 39.5716L16.5106 22.1136L18.9806 16.3991C19.418 15.3791 19.9553 14.0449 20.4444 13.0622C20.7712 12.3919 21.0113 11.61 21.3449 10.9356C22.8235 7.94633 23.8878 4.63934 25.5062 1.73376Z" fill="url(#paint0_linear_1848_4861)"/>
<path d="M31.857 75.9829C31.2605 75.781 31.0145 75.4604 30.4452 74.9854C30.4452 74.9854 29.3515 73.882 28.9676 73.1607C27.9015 71.1583 26.7999 69.1749 25.7788 67.1478C25.2979 66.1933 24.738 65.2622 24.3129 64.2795C24.0919 63.7798 23.93 63.2555 23.8305 62.7182C23.7436 62.2239 23.7076 61.4287 23.8288 60.9617C24.1324 59.7923 25.8473 55.7672 26.4127 54.9561C27.7156 55.0266 29.0672 54.9775 30.3716 55.0033C33.4341 55.0641 36.6027 54.941 39.654 54.9901C41.026 54.9793 43.445 54.8108 44.5991 55.309C44.9622 55.9906 45.1591 56.5061 44.8854 57.3089C44.639 58.0319 43.7226 59.7284 43.2863 60.3175C41.7583 63.1078 40.1868 65.8949 38.5975 68.6506C37.2766 70.941 35.0467 76.0783 31.857 75.9829Z" fill="url(#paint1_linear_1848_4861)"/>
<path d="M25.508 1.73376C26.019 2.37023 26.7528 4.07748 27.1583 4.90475L30.6374 12.0387C31.1575 12.9097 31.7198 14.1082 32.183 15.0307L35.3436 21.4268L36.3084 23.2826L38.4 27.5604C35.6923 23.6219 27.1583 15.5288 27.1583 15.5288L21.3467 10.9356C22.8253 7.94634 23.8896 4.63934 25.508 1.73376Z" fill="#6A32B3"/>
<path d="M81.5941 1.58826C85.9431 1.62836 90.3259 1.51442 94.6674 1.56257C96.5203 1.63148 98.468 1.43968 100.308 1.64259C107.691 2.45676 112.485 9.32508 112.307 16.4773C112.229 19.6119 111.26 21.5068 110.012 24.2988L107.458 30.0464C106.269 32.765 105.133 35.5206 103.877 38.2131C103.576 38.858 103.179 39.9588 102.835 40.5051L102.733 40.4208C102.503 40.3033 102.057 40.3664 102.069 40.3664C102.01 40.0976 102.19 38.6873 102.208 38.3007C102.399 34.1788 101.931 29.8114 99.2016 26.5338C97.2914 24.2399 93.3529 22.7462 90.4668 22.5567C89.2883 22.4793 87.9708 22.5322 86.7782 22.4942C86.6803 22.4912 86.6834 22.456 86.5997 22.3584L86.5 22.5001C82.3689 22.5372 78.2372 22.5465 74.1061 22.528C72.6187 22.516 71.111 22.558 69.6249 22.5286C67.1252 22.4734 67.2919 20.8071 68.2255 19.0578C69.1159 17.3902 70.1295 15.796 71.0372 14.1471C72.4409 11.5551 73.8815 8.98299 75.3578 6.4317C75.9043 5.48418 76.5849 4.038 77.3523 3.29728C78.5061 2.18395 79.9578 1.47736 81.5941 1.58826Z" fill="#FEFEFE"/>
<path d="M86.5 22.5021C82.3689 22.5392 78.2372 22.5485 74.1061 22.53C72.6187 22.518 71.111 22.56 69.6249 22.5306C67.1252 22.4754 67.2919 20.8092 68.2255 19.0598C69.1159 17.3922 70.1295 15.798 71.0372 14.1491C72.4409 11.5571 73.8815 8.985 75.3578 6.43372C75.9043 5.48619 76.5849 4.04001 77.3523 3.29929C78.5061 2.18597 79.9578 1.47937 81.5941 1.59027C82.4194 2.0673 82.5726 2.5126 83.1148 3.33803C83.4569 3.8354 84.2446 5.19608 84.4661 5.7229C85.6785 8.60641 89.1831 13.075 88.9462 16.1642C88.724 18.0151 87.5548 19.7283 86.9418 21.4812C86.8551 21.7294 86.708 22.1224 86.5997 22.3604L86.5 22.5021Z" fill="url(#paint2_linear_1848_4861)"/>
<path d="M86.5011 22.505L86.6007 22.3633C86.6844 22.4609 86.6814 22.4961 86.7792 22.4992C87.9718 22.5371 89.2894 22.4843 90.4678 22.5616C93.354 22.7511 97.2925 24.2448 99.2026 26.5387C102.369 29.4275 103.027 36.3881 102.836 40.51C102.703 41.1166 101.339 44.0308 100.993 44.7962L97.7842 52.0268C95.7749 56.5958 93.7971 61.2136 91.7306 65.7528C91.3786 66.5264 90.5251 68.7405 90.194 69.2975C89.3503 71.151 88.5823 73.015 87.7023 74.8501C87.5417 75.1861 87.3263 75.5603 87.1841 75.8815C85.4666 72.3412 83.7078 68.8205 81.909 65.3202C80.8721 63.2611 79.8838 61.1756 78.8395 59.1249L75.8395 53.1285C75.6333 52.7186 74.5466 50.6562 74.4961 50.3698C74.605 49.4927 75.7798 46.9747 76.1798 46.0739C76.9367 44.3706 77.7521 42.2235 78.5983 40.5805C78.7779 40.011 79.2543 38.9902 79.506 38.4143L81.5453 33.8373L85.2635 25.388C85.6721 24.4623 86.0875 23.3904 86.5011 22.505Z" fill="url(#paint3_linear_1848_4861)"/>
<path d="M78.5983 40.5762C78.7459 40.8975 78.8746 40.8779 78.8856 40.9154C79.3964 42.6027 79.9638 45.466 80.3558 47.0516L84.0715 62.6206L85.1509 67.3215C85.3054 67.9978 87.4949 74.2126 87.7023 74.8458C88.5823 73.0108 86.8586 76.6994 87.7023 74.8458C87.5417 75.1818 87.3263 75.556 87.1841 75.8772C85.4666 72.3369 83.7078 68.8163 81.909 65.316C80.8721 63.2569 79.8838 61.1713 78.8395 59.1206L75.8395 53.1242C75.6333 52.7143 74.5466 50.6519 74.4961 50.3655C74.605 49.4885 75.7798 46.9704 76.1798 46.0696C76.9367 44.3663 77.7521 42.2192 78.5983 40.5762Z" fill="#6A32B3"/>
<path d="M69.8926 76.1072C70.3873 76.0106 86.0249 76.0254 86.3677 76.1072C86.3776 76.1029 70.8612 76.2309 69.8926 76.1072Z" fill="#89ECF9" fill-opacity="0.0117647"/>
<path d="M16.2119 76.1058C16.9157 76.0277 18.7972 76.064 19.5986 76.0714C20.8271 76.0837 22.6616 76.0117 23.8463 76.1058C22.8033 76.1938 21.1298 76.1366 20.011 76.1403C18.9838 76.1434 17.1845 76.1883 16.2119 76.1058Z" fill="#89ECF9" fill-opacity="0.0117647"/>
</g>
<path d="M321.756 64.923L325.401 54.2388H329.745L318.861 84.0447C317.213 88.588 314.567 89.936 310.473 89.936C309.674 89.936 308.825 89.8861 308.077 89.8362V86.4412H310.423C312.969 86.4412 314.317 85.2929 315.116 83.2459C315.416 82.497 315.715 81.6483 316.015 80.8495L306.329 54.2388H310.723L314.367 64.9729C315.665 68.7174 316.864 72.4119 318.062 76.1065C319.21 72.4119 320.458 68.6675 321.756 64.923Z" fill="white"/>
<path d="M295.522 53.6396C301.513 53.6396 304.359 57.5339 304.359 62.5265V80.0007H300.365V62.9259C300.365 58.9318 298.368 57.2343 294.973 57.2343C291.728 57.2343 288.383 59.7306 288.383 65.9215V80.0007H284.389V62.9259C284.389 58.9318 282.342 57.2343 278.996 57.2343C275.851 57.2343 272.406 59.7306 272.406 65.9215V80.0007H268.412V54.2388H272.206V58.0332C273.754 55.3871 276.201 53.6396 279.646 53.6396C283.739 53.6396 286.336 55.6367 287.584 58.4825C289.181 55.6367 291.877 53.6396 295.522 53.6396Z" fill="white"/>
<path d="M251.94 80.5998C244.901 80.5998 239.958 75.4574 239.958 67.1197C239.958 59.0317 244.701 53.6396 251.84 53.6396C259.529 53.6396 263.673 59.7306 263.673 67.1197V68.5177H244.102C244.501 74.3091 247.547 76.9552 252.04 76.9552C255.685 76.9552 257.981 75.058 258.88 72.1623H263.024C261.776 77.0051 258.081 80.5998 251.94 80.5998ZM244.202 64.923H259.379C258.98 60.6792 256.434 57.2843 251.84 57.2843C247.796 57.2843 244.851 59.8305 244.202 64.923Z" fill="white"/>
<path d="M231.226 57.9333V44.4532H235.22V80.0007H231.426V76.0066C229.479 78.9523 226.433 80.5998 222.589 80.5998C215.349 80.5998 210.606 75.3576 210.606 67.1198C210.606 58.8819 215.349 53.6397 222.589 53.6397C226.333 53.6397 229.279 55.1874 231.226 57.9333ZM223.088 77.0052C228.081 77.0052 231.376 73.3605 231.376 67.1198C231.376 60.879 228.081 57.2344 223.088 57.2344C218.095 57.2344 214.8 61.0787 214.8 67.3195C214.8 73.5603 218.095 77.0052 223.088 77.0052Z" fill="white"/>
<path d="M207.132 76.7555H208.58V80.0007C207.931 80.1006 207.132 80.1505 206.383 80.1505C203.537 80.1505 202.239 78.9023 202.04 76.4559C200.242 79.2019 197.347 80.5998 193.652 80.5998C188.06 80.5998 184.565 77.9038 184.565 73.061C184.565 69.0169 187.012 65.8217 194.101 65.0728L197.796 64.6733C200.392 64.3738 201.84 63.4252 201.84 61.1286C201.84 58.4326 200.442 57.0846 196.048 57.0846C191.655 57.0846 189.808 58.3327 189.558 62.177H185.564C185.864 57.1844 188.51 53.6396 196.048 53.6396C203.188 53.6396 205.734 56.785 205.734 61.1286V75.5073C205.734 76.3062 206.183 76.7555 207.132 76.7555ZM193.852 77.2048C197.696 77.2048 201.84 74.9082 201.84 69.8158V66.7703C201.041 67.3694 199.943 67.7188 198.445 67.8686L194.7 68.318C190.007 68.8672 188.709 70.4648 188.709 72.9611C188.709 75.5073 190.307 77.2048 193.852 77.2048Z" fill="white"/>
<path d="M170.712 80.5998C163.672 80.5998 158.779 75.4075 158.779 67.1197C158.779 58.832 163.572 53.6396 170.712 53.6396C176.853 53.6396 180.996 57.2843 181.795 62.9759H177.651C176.952 59.0816 173.957 57.2343 170.712 57.2343C166.318 57.2343 162.973 60.3797 162.973 67.1197C162.973 73.8598 166.418 77.0051 170.712 77.0051C174.007 77.0051 177.002 75.1079 177.701 71.1638H181.795C180.947 77.0551 176.503 80.5998 170.712 80.5998Z" fill="white"/>
<path d="M157 80.0007H152.556L148.413 69.666H132.236L128.143 80.0007H123.749L137.928 44.4532H142.621L157 80.0007ZM133.884 65.4722L133.734 65.8716H146.915L146.715 65.4223C145.167 61.5779 142.372 54.4884 140.225 48.9965C138.178 54.4884 135.432 61.5779 133.884 65.4722Z" fill="white"/>
<path d="M264.075 12.6396C270.066 12.6396 272.912 16.5339 272.912 21.5265V39.0007H268.918V21.9259C268.918 17.9318 266.921 16.2343 263.526 16.2343C260.28 16.2343 256.935 18.7306 256.935 24.9215V39.0007H252.941V21.9259C252.941 17.9318 250.894 16.2343 247.549 16.2343C244.404 16.2343 240.959 18.7306 240.959 24.9215V39.0007H236.965V13.2388H240.759V17.0332C242.307 14.3871 244.753 12.6396 248.198 12.6396C252.292 12.6396 254.888 14.6367 256.137 17.4825C257.734 14.6367 260.43 12.6396 264.075 12.6396Z" fill="white"/>
<path d="M226.977 27.8172V13.2388H230.971V39.0007H227.177V35.1564C225.479 37.7526 222.683 39.5998 219.089 39.5998C213.347 39.5998 210.002 36.3546 210.002 30.663V13.2388H213.996V30.2636C213.996 34.2577 216.193 36.0051 219.887 36.0051C223.232 36.0051 226.977 33.5088 226.977 27.8172Z" fill="white"/>
<path d="M206.985 13.2388L197.648 25.8202L207.484 39.0007H202.791L201.393 37.0536C199.346 34.1579 197.299 31.3121 195.352 28.666C193.355 31.362 191.208 34.2577 189.211 37.1035L187.863 39.0007H183.22L193.055 25.8202L183.719 13.2388H188.412L190.409 15.9847C192.107 18.2813 193.804 20.6279 195.402 22.9744C197.049 20.6279 198.797 18.1815 200.394 15.9847L202.341 13.2388H206.985Z" fill="white"/>
<path d="M171.493 39.5998C164.453 39.5998 159.511 34.4574 159.511 26.1197C159.511 18.0317 164.254 12.6396 171.393 12.6396C179.082 12.6396 183.226 18.7306 183.226 26.1197V27.5177H163.655C164.054 33.3091 167.1 35.9552 171.593 35.9552C175.238 35.9552 177.534 34.058 178.433 31.1623H182.577C181.329 36.0051 177.634 39.5998 171.493 39.5998ZM163.754 23.923H178.932C178.533 19.6792 175.986 16.2843 171.393 16.2843C167.349 16.2843 164.404 18.8305 163.754 23.923Z" fill="white"/>
<path d="M150.359 15.4355V3.45325H154.503V39.0007H149.411L137.628 20.6778C135.182 16.8335 132.186 12.0905 130.239 8.64558C130.389 15.6353 130.389 22.2255 130.389 27.0184V39.0007H126.245V3.45325H131.338L143.12 21.7762C145.567 25.6205 148.562 30.3635 150.509 33.8084C150.359 26.8187 150.359 20.2285 150.359 15.4355Z" fill="white"/>
<path d="M297.976 12.9505L300.819 5.92261H302.786V18.655H301.32V14.5778C301.32 12.8789 301.32 10.5542 301.373 8.0864C301.034 9.03418 300.694 9.89254 300.247 10.9834L297.1 18.655H295.812L292.647 10.9834C292.2 9.89254 291.86 9.03418 291.52 8.0864C291.574 10.5542 291.574 12.8789 291.574 14.5778V18.655H290.107V5.92261H292.075L295.025 13.1651C295.544 14.4168 296.098 15.8474 296.474 16.831C296.867 15.7938 297.457 14.2022 297.976 12.9505Z" fill="white"/>
<path d="M278.371 5.92261H288.582V7.28168H284.254V18.655H282.699V7.28168H278.371V5.92261Z" fill="white"/>
<defs>
<linearGradient id="paint0_linear_1848_4861" x1="28.4398" y1="86.5495" x2="20.3033" y2="4.30435" gradientUnits="userSpaceOnUse">
<stop stop-color="white"/>
<stop offset="1" stop-color="#8943E3"/>
</linearGradient>
<linearGradient id="paint1_linear_1848_4861" x1="34.3823" y1="54.9541" x2="27.4139" y2="75.9135" gradientUnits="userSpaceOnUse">
<stop stop-color="white"/>
<stop offset="1" stop-color="#8943E3"/>
</linearGradient>
<linearGradient id="paint2_linear_1848_4861" x1="65.6055" y1="16.4664" x2="88.989" y2="8.69634" gradientUnits="userSpaceOnUse">
<stop stop-color="white"/>
<stop offset="1" stop-color="#8943E3"/>
</linearGradient>
<linearGradient id="paint3_linear_1848_4861" x1="94.4144" y1="19.1814" x2="88.6768" y2="75.8815" gradientUnits="userSpaceOnUse">
<stop stop-color="white"/>
<stop offset="1" stop-color="#8943E3"/>
</linearGradient>
<clipPath id="clip0_1848_4861">
<rect width="112.739" height="75.3233" fill="white" transform="translate(0 0.998047)"/>
</clipPath>
</defs>
</svg>
